<svg width="38" height="38" viewBox="0 0 38 38" fill="none" xmlns="http://www.w3.org/2000/svg">
<circle cx="19" cy="19" r="19" fill="#A3E49D"/>
<path d="M21.9378 9.644C21.9378 9.644 29.87 10.9025 29.2685 22.3638C29.2663 22.4063 30.1856 23.0252 30.2576 23.0913C30.8987 23.6792 31.4365 24.4322 31.6717 25.3129C32.5092 28.4493 29.515 31.6809 27.0936 32.5387C26.1892 32.859 25.2332 33.0146 24.2754 33.0429C18.0486 33.2267 9.80464 29.2136 9.38123 21.3763C9.36607 21.0951 9.36233 20.8136 9.36946 20.5328C9.407 19.0447 9.76119 17.5954 10.295 16.2497C10.2948 16.2498 13.7603 7.53357 21.9378 9.644Z" fill="#C99C62"/>
<g style="mix-blend-mode:multiply" opacity="0.5">
<path d="M29.4707 22.4882C29.3841 22.7017 29.2975 22.9744 29.2731 23.1304C29.169 23.7992 29.3938 24.4891 29.7859 24.9845C30.1581 25.4549 30.6907 25.7593 31.2068 25.8733C31.3811 25.9119 31.5921 25.9313 31.7767 25.9372C31.5871 24.0013 30.0298 22.8432 29.4707 22.4882Z" fill="#EEB2A7"/>
</g>
<g style="mix-blend-mode:multiply" opacity="0.5">
<path d="M18.2823 27.5718C19.7589 27.2474 20.6787 25.6732 20.3368 24.0558C19.995 22.4384 18.5209 21.3903 17.0444 21.7147C15.5679 22.0391 14.648 23.6133 14.9899 25.2307C15.3318 26.8481 16.8058 27.8963 18.2823 27.5718Z" fill="#EEB2A7"/>
</g>
<path opacity="0.3" d="M25.5013 23.0447C25.5013 23.0447 26.7596 21.8308 27.7337 22.9721L25.5013 23.0447Z" fill="#8B5E3C"/>
<path d="M13.769 29.0834C9.56441 31.2188 5.76718 25.8927 6.99569 22.892C7.77935 20.978 10.0502 20.8248 11.3613 22.569C12.1351 23.5985 12.7599 24.9151 13.1133 26.175" fill="#C99C62"/>
<path opacity="0.3" d="M10.3219 24.33C10.8606 24.8845 11.2927 25.7076 11.8252 26.1661C11.7286 25.3972 11.5732 24.5763 11.2055 23.884C10.8321 23.1808 10.1512 22.6023 9.45625 22.6515C8.595 22.7125 7.88339 23.7277 7.78985 24.647C7.84577 24.0968 8.94127 23.7224 9.35892 23.7737C10.0099 25.0187 10.2568 27.4748 10.2568 27.4748C10.8054 26.083 10.5876 24.9896 10.3219 24.33Z" fill="#8B5E3C"/>
<path d="M26.2433 25.6404C26.808 25.6562 27.3495 25.4927 27.8159 25.0021C28.0599 24.7456 28.3074 24.6044 28.6575 24.8238C29.4958 25.3493 29.6931 26.662 29.4678 27.5422C29.2204 28.508 28.4752 29.2867 27.6164 29.7945C25.3053 31.161 23.5327 30.8535 21.1679 29.98C19.3064 29.2926 16.7898 27.9069 17.4277 25.522C18.2177 22.5692 21.6223 23.987 23.5432 24.7835C24.3589 25.122 25.3314 25.6148 26.2433 25.6404Z" fill="white"/>
<mask id="mask0_311_437" style="mask-type:alpha" maskUnits="userSpaceOnUse" x="17" y="23" width="13" height="8">
<path d="M26.2433 25.6404C26.808 25.6562 27.3495 25.4927 27.8159 25.0021C28.0599 24.7456 28.3074 24.6044 28.6575 24.8238C29.4958 25.3493 29.6931 26.662 29.4678 27.5422C29.2204 28.508 28.4752 29.2867 27.6164 29.7945C25.3053 31.161 23.5327 30.8535 21.1679 29.98C19.3064 29.2926 16.7898 27.9069 17.4277 25.522C18.2177 22.5692 21.6223 23.987 23.5432 24.7835C24.3589 25.122 25.3314 25.6148 26.2433 25.6404Z" fill="white"/>
</mask>
<g mask="url(#mask0_311_437)">
<path fill-rule="evenodd" clip-rule="evenodd" d="M18.5332 28.9202L20.9525 22.7395L21.2893 22.8746L18.87 29.0552L18.5332 28.9202ZM23.5043 30.9172L25.1753 24.4318L25.5259 24.5243L23.8548 31.0097L23.5043 30.9172ZM28.4778 29.3513L27.5557 24.5965L27.9112 24.5259L28.8333 29.2806L28.4778 29.3513Z" fill="#D1D3D4"/>
</g>
<path d="M21.1142 21.2892C21.6475 21.2794 22.1813 21.4739 22.6535 21.7643C22.9367 21.4714 23.0729 20.9708 22.9665 20.4479C22.8172 19.7141 22.2526 19.2221 21.7054 19.3491C21.1582 19.4761 20.836 20.174 20.9855 20.9078C21.0133 21.0456 21.0598 21.1713 21.1142 21.2892Z" fill="#2A1200"/>
<path d="M28.1031 21.3788C28.1817 21.2029 28.2279 20.9881 28.2234 20.7535C28.2126 20.1706 27.9041 19.7003 27.5345 19.7035C27.1648 19.7065 26.874 20.1817 26.8849 20.7649C26.8909 21.0855 26.9888 21.3687 27.1354 21.5611C27.4439 21.44 27.7717 21.3822 28.1031 21.3788Z" fill="#2A1200"/>
<path d="M23.1154 16.9813C22.2893 16.8453 21.4041 17.1577 20.8098 17.7915C20.6182 17.9958 20.5646 18.3582 20.7648 18.5889C20.9498 18.8023 21.2862 18.8676 21.4913 18.6486C21.5528 18.583 21.617 18.5208 21.685 18.4631C21.7062 18.4451 21.765 18.4133 21.7835 18.3867C21.7938 18.3798 21.8039 18.373 21.8144 18.3663C21.8793 18.3249 21.946 18.2871 22.0144 18.2527C22.0535 18.2331 22.093 18.2149 22.133 18.1976C22.1457 18.1923 22.1583 18.1871 22.1712 18.182C22.2063 18.1758 22.2466 18.1566 22.2786 18.1477C22.3204 18.1361 22.3623 18.126 22.4047 18.1171C22.4787 18.1015 22.5534 18.0898 22.6284 18.0821C22.6389 18.081 22.6493 18.0802 22.6598 18.0794C22.7003 18.0796 22.7407 18.0788 22.7813 18.0805C22.8676 18.0841 22.9534 18.0939 23.039 18.1078C23.3059 18.1518 23.5827 17.8858 23.5907 17.5936C23.599 17.272 23.4014 17.0285 23.1154 16.9813Z" fill="#71472D"/>
<path d="M28.6614 17.9417C28.3614 17.5238 27.9207 17.2497 27.4451 17.1701C27.3168 17.1486 27.167 17.1984 27.0669 17.2851C26.9682 17.3705 26.8855 17.5209 26.8768 17.6614C26.868 17.8073 26.8964 17.9638 26.9864 18.0785C27.0776 18.1948 27.1921 18.2687 27.3314 18.2922C27.3543 18.296 27.3765 18.3025 27.3992 18.3075C27.4662 18.3309 27.531 18.3598 27.5942 18.3937C27.6661 18.443 27.7334 18.4989 27.7964 18.5615C27.8169 18.5864 27.8386 18.6102 27.8577 18.6367C27.9399 18.751 28.0718 18.8325 28.2027 18.8503C28.3281 18.8674 28.4841 18.8266 28.581 18.7351C28.6813 18.6403 28.7618 18.509 28.771 18.3587C28.7802 18.209 28.7484 18.0627 28.6614 17.9417Z" fill="#71472D"/>
<mask id="mask1_311_437" style="mask-type:alpha" maskUnits="userSpaceOnUse" x="27" y="14" width="5" height="7">
<path d="M28.7068 20.882C28.6753 17.8793 28.0153 15.6656 27.1022 14.0371C28.1998 14.0371 30.5156 14.5933 30.9986 16.8179C31.4816 19.0425 29.6719 20.4542 28.7068 20.882Z" fill="#C4C4C4"/>
</mask>
<g mask="url(#mask1_311_437)">
<ellipse cx="27.5833" cy="17.648" rx="2.68659" ry="2.71964" fill="#2B1200"/>
</g>
<path fill-rule="evenodd" clip-rule="evenodd" d="M27.8549 16.4839C27.1003 16.4839 26.4159 16.1708 25.9154 15.6627C25.4092 16.1708 24.7172 16.4839 23.9541 16.4839C22.9929 16.4839 22.1444 15.987 21.6381 15.2294C21.0737 15.9918 20.1825 16.4838 19.1797 16.4838C18.7379 16.4838 18.3178 16.3883 17.9377 16.2163C17.5856 17.141 16.8253 17.8547 15.8852 18.1222C15.9779 18.4247 16.0279 18.7468 16.0279 19.0808C16.0279 19.9838 15.6625 20.799 15.0758 21.378C15.0245 23.7388 13.9438 24.9633 13.275 25.3179C13.114 25.4504 12.4297 25.4096 12.4297 25.4096C12.2246 24.4533 11.4894 22.6707 10.0319 21.7888C9.92063 21.8013 9.80761 21.8077 9.69313 21.8077C7.98692 21.8077 6.60376 20.3834 6.60376 18.6264C6.60376 17.7181 6.97338 16.8987 7.56618 16.3191C7.08381 15.7578 6.791 15.0199 6.791 14.2114C6.791 12.5299 8.0579 11.153 9.66241 11.0379C9.69171 9.30725 11.0495 7.9137 12.7201 7.9137C13.1684 7.9137 13.5942 8.01406 13.9779 8.19436C14.4557 7.07343 15.5431 6.29053 16.808 6.29053C17.5043 6.29053 18.1467 6.52769 18.6633 6.92784C19.2117 6.07388 20.1467 5.51147 21.208 5.51147C22.4891 5.51147 23.5863 6.33094 24.0414 7.49348C24.4323 7.30481 24.8679 7.19949 25.3272 7.19949C27.0161 7.19949 28.3853 8.62383 28.3853 10.3808C28.3853 10.5071 28.3783 10.6316 28.3645 10.754C29.655 11.003 30.6322 12.1801 30.6322 13.5947C30.6322 15.1903 29.3887 16.4839 27.8549 16.4839Z" fill="#2B1200"/>
</svg>
