<svg width="365" height="385" viewBox="0 0 365 385" fill="none" xmlns="http://www.w3.org/2000/svg">
<path d="M79.7246 385C79.7246 380.667 78.8913 378.5 77.2246 378.5L65.7246 384C65.7246 381.667 64.3913 380 61.7246 379L57.7246 378.5C55.0579 378.5 51.7246 379.667 47.7246 382C47.0579 380.333 46.2246 378.667 45.2246 377C44.2246 375.333 43.3913 373.833 42.7246 372.5C38.3913 364.167 34.0579 355 29.7246 345C25.7246 334.667 21.8913 324.833 18.2246 315.5C14.8913 306.167 12.2246 298.833 10.2246 293.5C8.89128 289.167 7.39128 282.667 5.72461 274C4.05794 265.333 2.39128 254.333 0.724611 241C4.39128 243.333 7.22461 244.5 9.22461 244.5C11.5579 244.5 13.7246 241 15.7246 234C16.7246 235.333 18.5579 236 21.2246 236C23.2246 236 24.7246 235.333 25.7246 234L33.7246 222L42.7246 225H43.2246C43.8913 225 44.5579 224.667 45.2246 224C45.8913 223.333 46.8913 222.667 48.2246 222C50.8913 220.333 52.8913 219.5 54.2246 219.5L55.7246 220C64.0579 224 69.3913 231.333 71.7246 242C77.7246 267.333 83.7246 280 89.7246 280C95.7246 280 102.725 273.667 110.725 261C114.725 254.667 118.725 247.333 122.725 239C127.058 230.667 131.391 221.333 135.725 211C136.391 215 137.058 217 137.725 217C139.391 217 142.225 212.833 146.225 204.5C150.558 196.167 157.391 184.667 166.725 170C172.058 161 178.725 150.833 186.725 139.5C195.058 128.167 203.891 116.5 213.225 104.5C222.558 92.5 231.558 81.1666 240.225 70.5C249.225 59.8333 257.225 50.6666 264.225 43C271.225 35.3333 276.391 30.3333 279.725 28C292.391 19.3333 302.391 11 309.725 2.99999C309.391 5.33331 308.891 7.49998 308.225 9.49999C307.891 11.1667 307.725 12.3333 307.725 13C307.725 14.3333 308.391 15 309.725 15L323.725 7.99998V9.99998C323.725 12.6667 324.391 14 325.725 14C326.725 14 328.725 12.5 331.725 9.49999C334.725 6.49999 336.391 4.33332 336.725 2.99999L335.725 9.99998L352.725 -5.48363e-06L348.725 9C354.058 5.33332 357.891 3.49998 360.225 3.49998C361.558 3.49998 362.558 4.33331 363.225 5.99998C363.891 7.33331 364.225 8.66665 364.225 9.99998C364.225 12 363.391 14.3333 361.725 17C360.058 19.6667 357.891 22.8333 355.225 26.5C353.225 29.1667 349.891 33.1667 345.225 38.5C340.891 43.5 334.225 51 325.225 61C316.225 70.6666 304.225 84.1667 289.225 101.5C285.225 105.833 279.058 113.5 270.725 124.5C262.391 135.167 252.891 147.667 242.225 162C231.891 176 221.558 190.167 211.225 204.5C200.891 218.833 191.725 231.833 183.725 243.5C175.725 254.833 170.058 263.333 166.725 269L135.725 321.5C129.058 332.833 123.558 342.167 119.225 349.5C114.891 356.5 111.558 361.333 109.225 364C104.225 370 98.7246 375.333 92.7246 380L88.2246 377.5L84.2246 380L79.7246 385Z" fill="#82BF3F"/>
</svg>
