<svg width="33" height="34" viewBox="0 0 33 34" fill="none" xmlns="http://www.w3.org/2000/svg">
<path d="M20.5601 18.2643C19.8021 18.2643 19.1895 18.8938 19.1895 19.6692V25.2892C19.1895 26.0632 18.5753 26.694 17.8186 26.694H13.7066V5.61973C13.7066 4.41989 12.961 3.34791 11.8399 2.94891L11.434 2.80973H17.8186C18.5753 2.80973 19.1895 3.44052 19.1895 4.21486V8.42972C19.1895 9.20508 19.8021 9.83459 20.5601 9.83459C21.318 9.83459 21.9307 9.20508 21.9307 8.42972V4.21486C21.9307 1.89108 20.0857 0 17.8186 0H3.08401C3.03181 0 2.98814 0.0239247 2.93744 0.0308705C2.87143 0.025211 2.80844 0 2.74143 0C1.22954 0 0 1.26003 0 2.80973V28.0989C0 29.2987 0.745654 30.3707 1.86677 30.7697L10.1156 33.5882C10.3952 33.6767 10.6733 33.7189 10.9655 33.7189C12.4773 33.7189 13.7066 32.4586 13.7066 30.9089V29.504H17.8186C20.0857 29.504 21.9307 27.6129 21.9307 25.2892V19.6692C21.9307 18.8938 21.318 18.2643 20.5601 18.2643Z" fill="#D4BFEB"/>
<path d="M32.4952 13.0531L27.0124 7.43339C26.6206 7.03156 26.0311 6.91065 25.5186 7.12829C25.0073 7.34618 24.6728 7.85889 24.6728 8.42664V12.6415H19.1902C18.4335 12.6415 17.8193 13.2707 17.8193 14.0463C17.8193 14.8219 18.4335 15.4512 19.1902 15.4512H24.6728V19.666C24.6728 20.2338 25.0073 20.7465 25.5186 20.9644C26.0311 21.182 26.6206 21.0611 27.0124 20.6595L32.4952 15.0396C33.0311 14.4903 33.0311 13.6023 32.4952 13.0531Z" fill="#D4BFEB"/>
</svg>
