<svg width="1440" height="323" viewBox="0 0 1440 323" fill="none" xmlns="http://www.w3.org/2000/svg">
<path fill-rule="evenodd" clip-rule="evenodd" d="M1 57.1437C0.447754 57.1437 0 57.5914 0 58.1437V136.968V139.808V323H1440V139.808V136.968V40.0446C1440 32.8755 1430.63 30.165 1426.8 36.2277L1426.8 36.2298C1413.6 57.1466 1387.2 98.9766 1359.6 119.892C1333.2 140.808 1306.8 140.808 1280.4 119.892C1270.29 112.227 1260.33 101.754 1250.48 91.3886C1233.45 73.4669 1216.73 55.8663 1200 53.6577C1186.92 51.9306 1173.84 59.6161 1160.62 67.3874C1147.15 75.3016 1133.53 83.3047 1119.6 81.5458C1104.32 79.5276 1089.03 64.6566 1073.75 49.7856C1062.63 38.9702 1051.52 28.1548 1040.4 22.2836C1012.8 8.33959 986.4 22.2836 960 36.2277C933.6 50.1717 907.2 64.1157 879.6 71.0878C853.2 78.0598 826.8 78.0598 800.4 67.6018C790.843 63.9803 781.429 59.1049 772.11 54.2781C754.516 45.1661 737.258 36.2277 720 36.2277C708.779 36.2277 697.557 40.0066 686.244 43.8165C670.94 48.97 655.469 54.1803 639.6 50.1717C626.4 46.6857 613.2 36.2276 600 25.7696C586.8 15.3116 573.6 4.85358 560.4 1.36758C532.8 -5.60444 506.4 15.3116 480 36.2277C453.6 57.1437 427.2 78.0598 399.6 88.5178C373.2 98.9759 346.8 98.9759 320.4 88.5178C308.15 83.8763 296.137 77.1746 284.255 70.5463C269.366 62.2403 254.683 54.0494 240 50.1717C219.102 44.6526 198.203 47.8714 176.71 51.1819C171.051 52.0534 165.352 52.9313 159.6 53.6577C133.2 57.1437 106.8 57.1437 80.4 57.1437H13.2H1Z" fill="#7DB778"/>
</svg>
