<svg width="132" height="145" viewBox="0 0 132 145" fill="none" xmlns="http://www.w3.org/2000/svg">
<rect x="35" y="119" width="61" height="13" rx="6.5" fill="#87B1C1"/>
<g clip-path="url(#clip0)">
<path d="M101.299 21.024C99.344 29.2293 119.198 46.3664 124.976 47.7455C130.747 49.1207 128.062 31.559 127.796 21.7105C127.526 11.5823 127.768 1.33498 122 -0.04813C116.221 -1.41735 103.255 12.8205 101.299 21.0279" fill="#7094A6"/>
<path d="M102.271 27.4335C100.56 34.5594 117.804 49.4402 122.821 50.6368C127.831 51.8254 125.508 36.5755 125.274 28.0308C125.032 19.232 125.246 10.3341 120.223 9.13554C115.217 7.93103 103.965 20.3096 102.265 27.4335" fill="#EDA75A"/>
<path d="M30.5851 21.0242C32.5417 29.2296 12.6861 46.3666 6.90557 47.7458C1.12509 49.1209 3.81193 31.5592 4.07784 21.7108C4.35764 11.5825 4.11157 1.33521 9.88809 -0.0459192C15.6547 -1.41712 28.6246 12.8208 30.5851 21.0281" fill="#7094A6"/>
<path d="M30.0189 27.4335C31.7135 34.5594 14.4793 49.4402 9.46275 50.6368C4.45022 51.8254 6.77591 36.5755 7.00213 28.0308C7.25216 19.232 7.02991 10.3341 12.0464 9.13554C17.0629 7.93103 28.3123 20.3096 30.0248 27.4335" fill="#EDA75A"/>
<path d="M128.646 62.2206C128.646 97.0384 100.428 125.256 65.6022 125.256C30.7724 125.256 2.56653 97.0384 2.56653 62.2206C2.56653 27.3908 30.7724 3.16162 65.6022 3.16162C100.43 3.16162 128.646 27.3928 128.646 62.2206Z" fill="#87B1C1"/>
<path d="M56.5185 55.3242C56.5185 65.9168 50.7896 74.517 43.7054 74.517C36.6311 74.517 30.8823 65.9168 30.8823 55.3242C30.8823 44.7216 36.6311 36.1353 43.7054 36.1353C50.7876 36.1353 56.5185 44.7236 56.5185 55.3242Z" fill="white"/>
<path d="M99.8697 55.3242C99.8697 65.9168 94.1349 74.517 87.0527 74.517C79.9823 74.517 74.2356 65.9168 74.2356 55.3242C74.2356 44.7216 79.9823 36.1353 87.0527 36.1353C94.1369 36.1353 99.8697 44.7236 99.8697 55.3242Z" fill="white"/>
<path d="M51.9865 55.3199C51.9865 60.8722 48.2757 65.3628 43.6997 65.3628C39.1118 65.3628 35.413 60.8722 35.413 55.3199C35.413 49.7676 39.1118 45.269 43.6997 45.269C48.2757 45.269 51.9865 49.7676 51.9865 55.3199Z" fill="#25333A"/>
<path d="M95.3448 55.3199C95.3448 60.8722 91.6479 65.3628 87.0541 65.3628C82.4761 65.3628 78.7713 60.8722 78.7713 55.3199C78.7713 49.7676 82.4761 45.269 87.0541 45.269C91.6479 45.269 95.3448 49.7676 95.3448 55.3199Z" fill="#25333A"/>
<path d="M54.8495 68.4596C54.8495 63.3518 59.2072 63.4371 65.1424 63.4371C71.0817 63.4371 76.3621 63.3518 76.3621 68.4596C76.3621 73.5832 71.5381 77.7345 65.6028 77.7345C59.6675 77.7345 54.8495 73.5832 54.8495 68.4596Z" fill="#394C54"/>
<path d="M46.1334 50.6665C46.1334 53.653 45.0479 56.07 43.7124 56.07C42.3651 56.07 41.2756 53.653 41.2756 50.6665C41.2756 47.684 42.3651 45.269 43.7124 45.269C45.0479 45.269 46.1334 47.682 46.1334 50.6665Z" fill="white"/>
<path d="M89.4925 50.6665C89.4925 53.653 88.4031 56.07 87.0537 56.07C85.7182 56.07 84.6248 53.653 84.6248 50.6665C84.6248 47.684 85.7182 45.269 87.0537 45.269C88.4031 45.269 89.4925 47.682 89.4925 50.6665Z" fill="white"/>
<path d="M114.707 81.0039C114.707 102.872 92.6804 120.636 65.5262 120.636C38.4018 120.636 16.3673 102.884 16.3673 81.0039" fill="#394C54"/>
<path d="M108.264 83.7217C108.264 92.703 89.0833 99.9737 65.4414 99.9737C41.8075 99.9737 22.6305 92.703 22.6305 83.7217" fill="white"/>
<path d="M92.0899 89.7148C92.0899 99.4303 79.6875 107.312 64.39 107.312C49.1043 107.312 36.6881 99.4303 36.6881 89.7148" fill="#394C54"/>
<path d="M49.6242 75.1616C49.5389 76.6658 48.505 77.8286 47.3084 77.7631L13.6038 75.8581C12.4132 75.7887 11.5103 74.5147 11.5996 73.0106C11.6849 71.5064 12.7247 70.3416 13.9154 70.409L47.62 72.314C48.8146 72.3815 49.7115 73.6575 49.6242 75.1616Z" fill="#5E7D89"/>
<path d="M48.3043 81.4792C48.5504 82.896 47.9491 84.1839 46.9649 84.3565L19.1043 89.1805C18.12 89.3532 17.1199 88.3451 16.8738 86.9243C16.6278 85.5094 17.229 84.2216 18.2133 84.0509L46.0541 79.2229C47.0383 79.0523 48.0384 80.0603 48.2845 81.4792" fill="#5E7D89"/>
<path d="M81.5719 74.5594C81.6572 76.0636 82.6911 77.2264 83.8877 77.161L117.59 75.254C118.783 75.1845 119.684 73.9105 119.598 72.4064C119.513 70.9042 118.475 69.7394 117.283 69.8049L83.5801 71.7119C82.3855 71.7793 81.4866 73.0553 81.5719 74.5594Z" fill="#5E7D89"/>
<path d="M82.911 80.8736C82.6649 82.2924 83.2662 83.5803 84.2505 83.7509L112.091 88.5789C113.075 88.7515 114.076 87.7435 114.322 86.3207C114.568 84.9078 113.964 83.6199 112.98 83.4473L85.1395 78.6213C84.1552 78.4487 83.1551 79.4567 82.909 80.8736" fill="#5E7D89"/>
</g>
<g filter="url(#filter0_d)">
<ellipse cx="115" cy="123" rx="13" ry="12" fill="#87B1C1"/>
<path d="M110.833 120.167C111.497 120.167 112.132 120.43 112.601 120.899C113.07 121.368 113.333 122.004 113.333 122.667C113.333 123.33 113.07 123.966 112.601 124.434C112.132 124.903 111.497 125.167 110.833 125.167C110.17 125.167 109.535 124.903 109.066 124.434C108.597 123.966 108.333 123.33 108.333 122.667C108.333 122.004 108.597 121.368 109.066 120.899C109.535 120.43 110.17 120.167 110.833 120.167ZM114.167 113.5C114.83 113.5 115.466 113.763 115.935 114.232C116.403 114.701 116.667 115.337 116.667 116C116.667 116.663 116.403 117.299 115.935 117.768C115.466 118.237 114.83 118.5 114.167 118.5C113.504 118.5 112.868 118.237 112.399 117.768C111.93 117.299 111.667 116.663 111.667 116C111.667 115.337 111.93 114.701 112.399 114.232C112.868 113.763 113.504 113.5 114.167 113.5ZM118.833 123.167C120.208 123.167 121.333 124.283 121.333 125.667C121.333 126.33 121.07 126.966 120.601 127.434C120.132 127.903 119.497 128.167 118.833 128.167C117.45 128.167 116.333 127.042 116.333 125.667C116.333 125.004 116.597 124.368 117.066 123.899C117.535 123.43 118.17 123.167 118.833 123.167Z" fill="#394C54"/>
</g>
<g filter="url(#filter1_d)">
<ellipse cx="17" cy="125" rx="13" ry="12" fill="#87B1C1"/>
<path d="M12.8335 122.167C13.4965 122.167 14.1324 122.43 14.6013 122.899C15.0701 123.368 15.3335 124.004 15.3335 124.667C15.3335 125.33 15.0701 125.966 14.6013 126.434C14.1324 126.903 13.4965 127.167 12.8335 127.167C12.1705 127.167 11.5346 126.903 11.0657 126.434C10.5969 125.966 10.3335 125.33 10.3335 124.667C10.3335 124.004 10.5969 123.368 11.0657 122.899C11.5346 122.43 12.1705 122.167 12.8335 122.167ZM16.1668 115.5C16.8299 115.5 17.4658 115.763 17.9346 116.232C18.4034 116.701 18.6668 117.337 18.6668 118C18.6668 118.663 18.4034 119.299 17.9346 119.768C17.4658 120.237 16.8299 120.5 16.1668 120.5C15.5038 120.5 14.8679 120.237 14.3991 119.768C13.9302 119.299 13.6668 118.663 13.6668 118C13.6668 117.337 13.9302 116.701 14.3991 116.232C14.8679 115.763 15.5038 115.5 16.1668 115.5ZM20.8335 125.167C22.2085 125.167 23.3335 126.283 23.3335 127.667C23.3335 128.33 23.0701 128.966 22.6013 129.434C22.1324 129.903 21.4965 130.167 20.8335 130.167C19.4502 130.167 18.3335 129.042 18.3335 127.667C18.3335 127.004 18.5969 126.368 19.0657 125.899C19.5346 125.43 20.1705 125.167 20.8335 125.167Z" fill="#394C54"/>
</g>
<defs>
<filter id="filter0_d" x="98" y="111" width="34" height="32" filterUnits="userSpaceOnUse" color-interpolation-filters="sRGB">
<feFlood flood-opacity="0" result="BackgroundImageFix"/>
<feColorMatrix in="SourceAlpha" type="matrix" values="0 0 0 0 0 0 0 0 0 0 0 0 0 0 0 0 0 0 127 0"/>
<feOffset dy="4"/>
<feGaussianBlur stdDeviation="2"/>
<feColorMatrix type="matrix" values="0 0 0 0 0.03 0 0 0 0 0.107874 0 0 0 0 0.133333 0 0 0 1 0"/>
<feBlend mode="normal" in2="BackgroundImageFix" result="effect1_dropShadow"/>
<feBlend mode="normal" in="SourceGraphic" in2="effect1_dropShadow" result="shape"/>
</filter>
<filter id="filter1_d" x="0" y="113" width="34" height="32" filterUnits="userSpaceOnUse" color-interpolation-filters="sRGB">
<feFlood flood-opacity="0" result="BackgroundImageFix"/>
<feColorMatrix in="SourceAlpha" type="matrix" values="0 0 0 0 0 0 0 0 0 0 0 0 0 0 0 0 0 0 127 0"/>
<feOffset dy="4"/>
<feGaussianBlur stdDeviation="2"/>
<feColorMatrix type="matrix" values="0 0 0 0 0.03 0 0 0 0 0.107874 0 0 0 0 0.133333 0 0 0 1 0"/>
<feBlend mode="normal" in2="BackgroundImageFix" result="effect1_dropShadow"/>
<feBlend mode="normal" in="SourceGraphic" in2="effect1_dropShadow" result="shape"/>
</filter>
<clipPath id="clip0">
<rect width="127" height="127" fill="white" transform="translate(2)"/>
</clipPath>
</defs>
</svg>
