<svg width="127" height="132" viewBox="0 0 127 132" fill="none" xmlns="http://www.w3.org/2000/svg">
<rect x="33" y="119" width="61" height="13" rx="6.5" fill="#87B1C1"/>
<g clip-path="url(#clip0)">
<path d="M99.2986 21.024C97.344 29.2293 117.198 46.3664 122.976 47.7455C128.747 49.1207 126.062 31.559 125.796 21.7105C125.526 11.5823 125.768 1.33498 120 -0.04813C114.221 -1.41735 101.255 12.8205 99.2986 21.0279" fill="#7094A6"/>
<path d="M100.271 27.4335C98.5602 34.5594 115.804 49.4402 120.821 50.6368C125.831 51.8254 123.508 36.5755 123.274 28.0308C123.032 19.232 123.246 10.3341 118.223 9.13554C113.217 7.93103 101.965 20.3096 100.265 27.4335" fill="#EDA75A"/>
<path d="M28.5851 21.0242C30.5417 29.2296 10.6861 46.3666 4.90557 47.7458C-0.874912 49.1209 1.81193 31.5592 2.07784 21.7108C2.35764 11.5825 2.11157 1.33521 7.88809 -0.0459192C13.6547 -1.41712 26.6246 12.8208 28.5851 21.0281" fill="#7094A6"/>
<path d="M28.0189 27.4335C29.7135 34.5594 12.4793 49.4402 7.46275 50.6368C2.45022 51.8254 4.77591 36.5755 5.00213 28.0308C5.25216 19.232 5.02991 10.3341 10.0464 9.13554C15.0629 7.93103 26.3123 20.3096 28.0248 27.4335" fill="#EDA75A"/>
<path d="M126.646 62.2206C126.646 97.0384 98.428 125.256 63.6022 125.256C28.7724 125.256 0.566528 97.0384 0.566528 62.2206C0.566528 27.3908 28.7724 3.16162 63.6022 3.16162C98.4299 3.16162 126.646 27.3928 126.646 62.2206Z" fill="#87B1C1"/>
<path d="M54.5185 55.3242C54.5185 65.9168 48.7896 74.517 41.7054 74.517C34.6311 74.517 28.8823 65.9168 28.8823 55.3242C28.8823 44.7216 34.6311 36.1353 41.7054 36.1353C48.7876 36.1353 54.5185 44.7236 54.5185 55.3242Z" fill="white"/>
<path d="M97.8697 55.3242C97.8697 65.9168 92.1349 74.517 85.0527 74.517C77.9823 74.517 72.2356 65.9168 72.2356 55.3242C72.2356 44.7216 77.9823 36.1353 85.0527 36.1353C92.1369 36.1353 97.8697 44.7236 97.8697 55.3242Z" fill="white"/>
<path d="M49.9865 55.3199C49.9865 60.8722 46.2757 65.3628 41.6997 65.3628C37.1118 65.3628 33.413 60.8722 33.413 55.3199C33.413 49.7676 37.1118 45.269 41.6997 45.269C46.2757 45.269 49.9865 49.7676 49.9865 55.3199Z" fill="#25333A"/>
<path d="M93.3448 55.3199C93.3448 60.8722 89.6479 65.3628 85.0541 65.3628C80.4761 65.3628 76.7713 60.8722 76.7713 55.3199C76.7713 49.7676 80.4761 45.269 85.0541 45.269C89.6479 45.269 93.3448 49.7676 93.3448 55.3199Z" fill="#25333A"/>
<path d="M52.8495 68.4596C52.8495 63.3518 57.2072 63.4371 63.1424 63.4371C69.0817 63.4371 74.3621 63.3518 74.3621 68.4596C74.3621 73.5832 69.5381 77.7345 63.6028 77.7345C57.6675 77.7345 52.8495 73.5832 52.8495 68.4596Z" fill="#394C54"/>
<path d="M44.1334 50.6665C44.1334 53.653 43.0479 56.07 41.7124 56.07C40.3651 56.07 39.2756 53.653 39.2756 50.6665C39.2756 47.684 40.3651 45.269 41.7124 45.269C43.0479 45.269 44.1334 47.682 44.1334 50.6665Z" fill="white"/>
<path d="M87.4925 50.6665C87.4925 53.653 86.4031 56.07 85.0537 56.07C83.7182 56.07 82.6248 53.653 82.6248 50.6665C82.6248 47.684 83.7182 45.269 85.0537 45.269C86.4031 45.269 87.4925 47.682 87.4925 50.6665Z" fill="white"/>
<path d="M112.707 81.0039C112.707 102.872 90.6804 120.636 63.5262 120.636C36.4018 120.636 14.3673 102.884 14.3673 81.0039" fill="#394C54"/>
<path d="M106.264 83.7217C106.264 92.703 87.0833 99.9737 63.4414 99.9737C39.8075 99.9737 20.6305 92.703 20.6305 83.7217" fill="white"/>
<path d="M90.0899 89.7148C90.0899 99.4303 77.6875 107.312 62.39 107.312C47.1043 107.312 34.6881 99.4303 34.6881 89.7148" fill="#394C54"/>
<path d="M47.6242 75.1616C47.5389 76.6658 46.505 77.8286 45.3084 77.7631L11.6038 75.8581C10.4132 75.7887 9.5103 74.5147 9.5996 73.0106C9.68493 71.5064 10.7247 70.3416 11.9154 70.409L45.62 72.314C46.8146 72.3815 47.7115 73.6575 47.6242 75.1616Z" fill="#5E7D89"/>
<path d="M46.3043 81.4792C46.5504 82.896 45.9491 84.1839 44.9649 84.3565L17.1043 89.1805C16.12 89.3532 15.1199 88.3451 14.8738 86.9243C14.6278 85.5094 15.229 84.2216 16.2133 84.0509L44.0541 79.2229C45.0383 79.0523 46.0384 80.0603 46.2845 81.4792" fill="#5E7D89"/>
<path d="M79.5719 74.5594C79.6572 76.0636 80.6911 77.2264 81.8877 77.161L115.59 75.254C116.783 75.1845 117.684 73.9105 117.598 72.4064C117.513 70.9042 116.475 69.7394 115.283 69.8049L81.5801 71.7119C80.3855 71.7793 79.4866 73.0553 79.5719 74.5594Z" fill="#5E7D89"/>
<path d="M80.911 80.8736C80.6649 82.2924 81.2662 83.5803 82.2505 83.7509L110.091 88.5789C111.075 88.7515 112.076 87.7435 112.322 86.3207C112.568 84.9078 111.964 83.6199 110.98 83.4473L83.1395 78.6213C82.1552 78.4487 81.1551 79.4567 80.909 80.8736" fill="#5E7D89"/>
</g>
<defs>
<clipPath id="clip0">
<rect width="127" height="127" fill="white"/>
</clipPath>
</defs>
</svg>
