<svg width="466" height="504" viewBox="0 0 466 504" fill="none" xmlns="http://www.w3.org/2000/svg">
<circle cx="233" cy="233" r="233" fill="#61C6E4"/>
<rect x="214.343" y="14.9241" width="9" height="38.5066" rx="4.5" fill="#2C2727"/>
<rect x="125" y="110.71" width="189.571" height="51.8358" rx="4" fill="#D73333"/>
<mask id="mask0_817_1225" style="mask-type:alpha" maskUnits="userSpaceOnUse" x="125" y="110" width="190" height="53">
<rect x="125" y="110.71" width="189.571" height="51.8358" rx="4" fill="#FFD6D6" fill-opacity="0.26"/>
</mask>
<g mask="url(#mask0_817_1225)">
<rect x="125" y="110.71" width="189.571" height="11.8482" fill="#FEC7C7"/>
</g>
<rect x="164.987" y="44.0635" width="109.596" height="51.8358" rx="25.9179" fill="#D73333"/>
<mask id="mask1_817_1225" style="mask-type:alpha" maskUnits="userSpaceOnUse" x="170" y="44" width="99" height="30">
<rect x="170.911" y="44.0636" width="97.7476" height="29.6205" rx="14.8102" fill="#FFD6D6" fill-opacity="0.26"/>
</mask>
<g mask="url(#mask1_817_1225)">
<rect x="170.911" y="44.0636" width="97.7476" height="6.7704" fill="#FEC7C7"/>
</g>
<rect x="136.849" y="60.3548" width="165.875" height="195.495" rx="21" fill="#CBD4DC"/>
<mask id="mask2_817_1225" style="mask-type:alpha" maskUnits="userSpaceOnUse" x="136" y="60" width="167" height="196">
<rect x="136.848" y="60.3549" width="165.875" height="195.495" rx="21" fill="#ECF6FF"/>
</mask>
<g mask="url(#mask2_817_1225)">
<rect x="136.848" y="60.3549" width="17.7723" height="186.609" fill="#F4FAFF" fill-opacity="0.55"/>
</g>
<mask id="mask3_817_1225" style="mask-type:alpha" maskUnits="userSpaceOnUse" x="136" y="60" width="167" height="196">
<rect width="165.875" height="195.495" rx="21" transform="matrix(-1 0 0 1 302.723 60.3549)" fill="#ECF6FF"/>
</mask>
<g mask="url(#mask3_817_1225)">
<rect width="17.7723" height="186.609" transform="matrix(-1 0 0 1 302.723 60.3549)" fill="#B4BDC6"/>
</g>
<ellipse cx="219.045" cy="14.4431" rx="5.18358" ry="4.44307" fill="#2C2727"/>
<rect x="161.545" y="175.394" width="116.482" height="40.9497" rx="5" fill="white" stroke="#11182C" stroke-width="2"/>
<rect x="167.95" y="177.356" width="2.96205" height="37.0256" fill="black"/>
<rect x="173.874" y="177.356" width="2.96205" height="37.0256" fill="black"/>
<rect x="179.799" y="177.356" width="2.96205" height="37.0256" fill="black"/>
<rect x="185.723" y="177.356" width="2.96205" height="37.0256" fill="black"/>
<rect x="191.646" y="177.356" width="2.96205" height="37.0256" fill="black"/>
<rect x="197.57" y="177.356" width="2.96205" height="37.0256" fill="black"/>
<rect x="203.495" y="177.356" width="2.96205" height="37.0256" fill="black"/>
<rect x="209.419" y="177.356" width="2.96205" height="37.0256" fill="black"/>
<rect x="215.343" y="177.356" width="2.96205" height="37.0256" fill="black"/>
<rect x="221.267" y="177.356" width="2.96205" height="37.0256" fill="black"/>
<rect x="227.191" y="177.356" width="2.96205" height="37.0256" fill="black"/>
<rect x="233.115" y="177.356" width="2.96205" height="37.0256" fill="black"/>
<rect x="239.039" y="177.356" width="2.96205" height="37.0256" fill="black"/>
<rect x="244.964" y="177.356" width="2.96205" height="37.0256" fill="black"/>
<rect x="250.888" y="177.356" width="2.96205" height="37.0256" fill="black"/>
<rect x="256.812" y="177.356" width="2.96205" height="37.0256" fill="black"/>
<rect x="262.735" y="177.356" width="2.96205" height="37.0256" fill="black"/>
<rect x="268.66" y="177.356" width="2.96205" height="37.0256" fill="black"/>
<mask id="path-34-inside-1_817_1225" fill="white">
<rect x="142.172" y="246.964" width="156.989" height="26.6584" rx="2"/>
</mask>
<rect x="142.172" y="246.964" width="156.989" height="26.6584" rx="2" fill="white" stroke="#797979" stroke-width="6" mask="url(#path-34-inside-1_817_1225)"/>
<mask id="path-35-inside-2_817_1225" fill="white">
<rect x="141.291" y="264.45" width="156.989" height="26.6584" rx="2" transform="rotate(-5.16366 141.291 264.45)"/>
</mask>
<rect x="141.291" y="264.45" width="156.989" height="26.6584" rx="2" transform="rotate(-5.16366 141.291 264.45)" fill="white" stroke="#797979" stroke-width="6" mask="url(#path-35-inside-2_817_1225)"/>
<rect x="118" y="265" width="211.453" height="238.775" rx="19" fill="#D73333"/>
<mask id="mask4_817_1225" style="mask-type:alpha" maskUnits="userSpaceOnUse" x="118" y="265" width="212" height="239">
<rect x="118" y="265" width="211.453" height="238.775" rx="19" fill="#FFD6D6" fill-opacity="0.24"/>
</mask>
<g mask="url(#mask4_817_1225)">
<rect x="113.842" y="265" width="28.5105" height="238.775" fill="#FFD6D6"/>
</g>
<mask id="mask5_817_1225" style="mask-type:alpha" maskUnits="userSpaceOnUse" x="118" y="265" width="212" height="239">
<rect width="211.453" height="238.775" rx="19" transform="matrix(-1 0 0 1 329.453 265)" fill="#FFD6D6" fill-opacity="0.43"/>
</mask>
<g mask="url(#mask5_817_1225)">
<rect width="28.5105" height="238.775" transform="matrix(-1 0 0 1 332.423 265)" fill="#871919"/>
</g>
<circle cx="187.203" cy="138.849" r="14.8102" fill="black"/>
<circle cx="255.33" cy="138.849" r="14.8102" fill="black"/>
<path d="M170.767 117.911C181.144 119.234 192.329 115.791 199.898 108.982C202.339 106.786 203.066 102.934 200.579 100.515C198.282 98.278 194.058 97.6341 191.445 99.9871C190.662 100.693 189.846 101.362 188.981 101.983C188.712 102.177 187.968 102.524 187.731 102.808C187.6 102.882 187.472 102.957 187.339 103.029C186.516 103.477 185.671 103.889 184.806 104.263C184.31 104.477 183.811 104.675 183.305 104.864C183.145 104.923 182.985 104.98 182.822 105.036C182.38 105.107 181.87 105.317 181.465 105.415C180.938 105.544 180.409 105.658 179.874 105.759C178.941 105.935 177.999 106.07 177.054 106.162C176.921 106.175 176.791 106.185 176.658 106.195C176.149 106.199 175.64 106.213 175.13 106.201C174.045 106.175 172.965 106.085 171.891 105.949C168.538 105.521 165.016 108.383 164.874 111.484C164.723 114.897 167.175 117.452 170.767 117.911Z" fill="black"/>
<path d="M244.227 92.0338C254.643 90.4713 265.739 93.6573 273.126 100.294C275.508 102.434 276.131 106.27 273.578 108.747C271.22 111.038 266.977 111.78 264.428 109.486C263.663 108.799 262.864 108.148 262.016 107.546C261.752 107.359 261.017 107.029 260.788 106.75C260.659 106.679 260.533 106.607 260.402 106.538C259.591 106.109 258.757 105.717 257.902 105.362C257.412 105.16 256.917 104.972 256.416 104.795C256.258 104.74 256.1 104.687 255.938 104.634C255.497 104.574 254.993 104.376 254.591 104.286C254.067 104.17 253.541 104.068 253.009 103.98C252.08 103.825 251.141 103.711 250.198 103.641C250.066 103.631 249.936 103.624 249.804 103.617C249.294 103.625 248.786 103.623 248.275 103.646C247.188 103.697 246.106 103.813 245.028 103.973C241.662 104.479 238.217 101.697 238.158 98.5988C238.099 95.1882 240.622 92.5756 244.227 92.0338Z" fill="black"/>
<path d="M135.001 284.917C135.001 284.917 198.069 330.138 237.203 316.284C261.472 307.693 261.501 239 261.501 239" stroke="#C4C4C4" stroke-width="39" stroke-linecap="round" stroke-linejoin="round"/>
<path d="M242.448 247.29C253.984 263.067 264.061 264.5 279 262M242.448 262C251.844 273.038 261 277 276 277M239.242 277.549C249.15 287.997 272.5 291.752 272.5 291.752M233.5 291.752C239.242 304 247.5 311.5 264 316.5M224.54 301.014C227.152 315.943 231.083 323.167 243.066 333.743M210.338 301.014C208.973 316.433 210.846 324.449 219.6 337.448M196.752 297.927C192.287 311.914 190.875 319.756 196.752 333.743M182.549 291.752C173.541 305.311 170.711 313.089 173.287 327.567M167.5 284.5C161.185 298.347 157.543 306.016 155.379 320.157M152.115 274.684C145.8 288.531 143.164 296.358 141 310.5" stroke="#8A8A8A" stroke-width="2"/>
<path d="M267.706 211.027L265.029 232.975L263.051 231.952L263.808 210.361L258.726 201.175L261.427 199.68L265.67 208.624L273.901 200.541L276.178 202.105L267.706 211.027Z" fill="#C4C4C4" stroke="#C4C4C4" stroke-width="9"/>
<path d="M317.8 285.309C317.8 285.309 346.353 361.108 321.815 396.82C306.598 418.966 267.557 430.654 267.557 430.654" stroke="#C4C4C4" stroke-width="39" stroke-linecap="round" stroke-linejoin="round"/>
<path d="M264.591 411.843C271.662 424.741 274.302 432.669 276.172 448.309M280.167 406.008C288.756 418.462 291.994 426.283 293.782 442.351M295.498 396.103C303.355 408.915 307.869 432.114 307.869 432.114M303.726 390.301C312.775 401.132 316.36 408.886 320.332 425.444M309.841 379.929C324.186 386.594 330.407 392.509 337.832 407.447M313.678 365.61C329.592 368.399 337.166 372.453 347.907 384.79M314.235 351.079C329.542 350.357 337.83 351.051 350.343 360.755M311.846 335.092C327.95 329.674 336.556 328.921 350.457 335.429M308.713 316.904C324.379 314.278 332.982 313.735 347.824 315.373" stroke="#8A8A8A" stroke-width="2"/>
<path d="M244.243 443.296L265.801 435.06L264.266 433.314L242.587 439.516L232.004 436.68L231.169 439.793L241.297 441.839L235.182 452.211L237.338 454.124L244.243 443.296Z" fill="#C4C4C4" stroke="#C4C4C4" stroke-width="9"/>
</svg>
