<svg width="366" height="366" viewBox="0 0 366 366" fill="none" xmlns="http://www.w3.org/2000/svg">
<circle cx="183" cy="183" r="183" fill="#61C6E4"/>
<rect x="177.343" y="47.9241" width="9" height="38.5066" rx="4.5" fill="#2C2727"/>
<rect x="88" y="143.71" width="189.571" height="51.8358" rx="4" fill="#D73333"/>
<mask id="mask0_642_3788" style="mask-type:alpha" maskUnits="userSpaceOnUse" x="88" y="143" width="190" height="53">
<rect x="88" y="143.71" width="189.571" height="51.8358" rx="4" fill="#FFD6D6" fill-opacity="0.26"/>
</mask>
<g mask="url(#mask0_642_3788)">
<rect x="88" y="143.71" width="189.571" height="11.8482" fill="#FEC7C7"/>
</g>
<rect x="127.987" y="77.0635" width="109.596" height="51.8358" rx="25.9179" fill="#D73333"/>
<mask id="mask1_642_3788" style="mask-type:alpha" maskUnits="userSpaceOnUse" x="133" y="77" width="99" height="30">
<rect x="133.911" y="77.0636" width="97.7476" height="29.6205" rx="14.8102" fill="#FFD6D6" fill-opacity="0.26"/>
</mask>
<g mask="url(#mask1_642_3788)">
<rect x="133.911" y="77.0636" width="97.7476" height="6.7704" fill="#FEC7C7"/>
</g>
<rect x="99.8486" y="93.3548" width="165.875" height="195.495" rx="21" fill="#CBD4DC"/>
<mask id="mask2_642_3788" style="mask-type:alpha" maskUnits="userSpaceOnUse" x="99" y="93" width="167" height="196">
<rect x="99.8477" y="93.3549" width="165.875" height="195.495" rx="21" fill="#ECF6FF"/>
</mask>
<g mask="url(#mask2_642_3788)">
<rect x="99.8477" y="93.3549" width="17.7723" height="186.609" fill="#F4FAFF" fill-opacity="0.55"/>
</g>
<mask id="mask3_642_3788" style="mask-type:alpha" maskUnits="userSpaceOnUse" x="99" y="93" width="167" height="196">
<rect width="165.875" height="195.495" rx="21" transform="matrix(-1 0 0 1 265.723 93.3549)" fill="#ECF6FF"/>
</mask>
<g mask="url(#mask3_642_3788)">
<rect width="17.7723" height="186.609" transform="matrix(-1 0 0 1 265.723 93.3549)" fill="#B4BDC6"/>
</g>
<ellipse cx="182.045" cy="47.4431" rx="5.18358" ry="4.44307" fill="#2C2727"/>
<rect x="124.545" y="208.394" width="116.482" height="40.9497" rx="5" fill="white" stroke="#11182C" stroke-width="2"/>
<rect x="130.95" y="210.356" width="2.96205" height="37.0256" fill="black"/>
<rect x="136.874" y="210.356" width="2.96205" height="37.0256" fill="black"/>
<rect x="142.799" y="210.356" width="2.96205" height="37.0256" fill="black"/>
<rect x="148.723" y="210.356" width="2.96205" height="37.0256" fill="black"/>
<rect x="154.646" y="210.356" width="2.96205" height="37.0256" fill="black"/>
<rect x="160.57" y="210.356" width="2.96205" height="37.0256" fill="black"/>
<rect x="166.495" y="210.356" width="2.96205" height="37.0256" fill="black"/>
<rect x="172.419" y="210.356" width="2.96205" height="37.0256" fill="black"/>
<rect x="178.343" y="210.356" width="2.96205" height="37.0256" fill="black"/>
<rect x="184.267" y="210.356" width="2.96205" height="37.0256" fill="black"/>
<rect x="190.191" y="210.356" width="2.96205" height="37.0256" fill="black"/>
<rect x="196.115" y="210.356" width="2.96205" height="37.0256" fill="black"/>
<rect x="202.039" y="210.356" width="2.96205" height="37.0256" fill="black"/>
<rect x="207.964" y="210.356" width="2.96205" height="37.0256" fill="black"/>
<rect x="213.888" y="210.356" width="2.96205" height="37.0256" fill="black"/>
<rect x="219.812" y="210.356" width="2.96205" height="37.0256" fill="black"/>
<rect x="225.735" y="210.356" width="2.96205" height="37.0256" fill="black"/>
<rect x="231.66" y="210.356" width="2.96205" height="37.0256" fill="black"/>
<mask id="path-34-inside-1_642_3788" fill="white">
<rect x="105.172" y="279.964" width="156.989" height="26.6584" rx="2"/>
</mask>
<rect x="105.172" y="279.964" width="156.989" height="26.6584" rx="2" fill="white" stroke="#797979" stroke-width="6" mask="url(#path-34-inside-1_642_3788)"/>
<mask id="path-35-inside-2_642_3788" fill="white">
<rect x="104.291" y="297.45" width="156.989" height="26.6584" rx="2" transform="rotate(-5.16366 104.291 297.45)"/>
</mask>
<rect x="104.291" y="297.45" width="156.989" height="26.6584" rx="2" transform="rotate(-5.16366 104.291 297.45)" fill="white" stroke="#797979" stroke-width="6" mask="url(#path-35-inside-2_642_3788)"/>
<path d="M168.16 179.28C153.423 171.289 137.677 175.716 130.899 179.287C130.715 179.384 130.528 179.156 130.64 178.981C145.65 155.559 161.77 168.8 168.432 179.004C168.545 179.178 168.342 179.378 168.16 179.28Z" fill="black"/>
<path d="M239.248 179.28C224.511 171.289 208.766 175.716 201.988 179.287C201.804 179.384 201.617 179.156 201.729 178.981C216.739 155.559 232.859 168.8 239.52 179.004C239.634 179.178 239.431 179.378 239.248 179.28Z" fill="black"/>
<path d="M151.306 142.089C140.929 140.766 129.744 144.209 122.175 151.018C119.734 153.214 119.008 157.066 121.494 159.484C123.791 161.722 128.016 162.366 130.628 160.013C131.411 159.307 132.228 158.638 133.092 158.017C133.361 157.823 134.106 157.476 134.342 157.192C134.473 157.118 134.601 157.043 134.735 156.971C135.557 156.523 136.402 156.111 137.267 155.737C137.763 155.523 138.262 155.324 138.768 155.135C138.928 155.077 139.088 155.02 139.251 154.964C139.694 154.893 140.204 154.683 140.608 154.585C141.135 154.456 141.664 154.342 142.199 154.241C143.132 154.065 144.074 153.93 145.019 153.838C145.152 153.825 145.282 153.815 145.415 153.805C145.924 153.801 146.433 153.787 146.943 153.798C148.029 153.824 149.108 153.915 150.182 154.05C153.535 154.479 157.057 151.617 157.199 148.516C157.351 145.103 154.898 142.548 151.306 142.089Z" fill="black"/>
<path d="M212.301 141.034C222.716 139.471 233.812 142.657 241.199 149.294C243.582 151.434 244.204 155.27 241.652 157.747C239.294 160.038 235.05 160.78 232.501 158.486C231.736 157.799 230.938 157.148 230.089 156.546C229.826 156.359 229.09 156.029 228.861 155.75C228.733 155.679 228.607 155.607 228.475 155.538C227.664 155.109 226.83 154.717 225.975 154.362C225.485 154.16 224.99 153.972 224.489 153.795C224.331 153.74 224.173 153.687 224.012 153.634C223.571 153.574 223.066 153.376 222.664 153.286C222.14 153.17 221.614 153.068 221.082 152.98C220.153 152.825 219.215 152.711 218.272 152.641C218.139 152.631 218.009 152.624 217.877 152.617C217.367 152.625 216.859 152.623 216.348 152.646C215.262 152.697 214.18 152.813 213.101 152.973C209.736 153.479 206.29 150.697 206.232 147.599C206.173 144.188 208.695 141.576 212.301 141.034Z" fill="black"/>
</svg>
