<svg width="233" height="233" viewBox="0 0 233 233" fill="none" xmlns="http://www.w3.org/2000/svg">
<path d="M181.178 38.8341C177.581 53.8953 214.016 85.3431 224.617 87.8733C235.219 90.4035 230.29 58.1694 229.805 40.1083C229.288 21.5047 229.747 2.70086 219.146 0.170629C208.555 -2.35597 184.764 23.7764 181.178 38.8341Z" fill="#7094A6"/>
<path d="M182.979 50.5934C179.862 63.6669 211.499 90.9679 220.699 93.1742C229.899 95.3622 225.629 67.3694 225.199 51.6929C224.755 35.5467 225.155 19.2185 215.952 17.0159C206.752 14.817 186.091 37.5199 182.968 50.5934" fill="#EDA75A"/>
<path d="M51.4042 38.8341C55.0048 53.8953 18.5658 85.3431 7.9679 87.8733C-2.6336 90.4035 2.28125 58.1694 2.78001 40.1083C3.28242 21.5047 2.83826 2.70086 13.4252 0.170629C24.0303 -2.35597 47.8182 23.7764 51.4042 38.8341Z" fill="#7094A6"/>
<path d="M50.3949 50.5961C53.5222 63.6696 21.8779 90.9706 12.6744 93.1732C3.47087 95.3612 7.74496 67.3685 8.17456 51.6919C8.61871 35.5458 8.23281 19.2176 17.4327 17.015C26.6216 14.8197 47.2822 37.5226 50.3803 50.5961" fill="#EDA75A"/>
<path d="M231.365 114.421C231.365 178.321 179.581 230.098 115.688 230.098C51.7873 230.098 0.00668335 178.317 0.00668335 114.421C0.00668335 50.5206 51.7873 6.05762 115.684 6.05762C179.581 6.05762 231.365 50.5206 231.365 114.421Z" fill="#87B1C1"/>
<path d="M131.497 104.544C131.497 124.007 142.022 139.753 155.008 139.753C167.994 139.753 178.519 124.007 178.519 104.544C178.519 85.0996 167.994 69.3394 155.008 69.3394C142.022 69.3394 131.497 85.0996 131.497 104.544Z" fill="white"/>
<path d="M139.801 104.543C139.801 114.729 146.601 122.986 155.011 122.986C163.421 122.986 170.214 114.729 170.214 104.543C170.214 94.3563 163.421 86.0957 155.011 86.0957C146.601 86.0957 139.801 94.3563 139.801 104.543Z" fill="#25333A"/>
<path d="M125.431 89.5851C132.239 65.3676 163.188 52.5635 186.255 52.3051C192.993 52.2323 194.526 62.75 187.693 62.8228C168.274 63.0376 141.187 70.9669 135.341 91.7403C133.48 98.3298 123.592 96.1018 125.431 89.5851Z" fill="#394C54"/>
<path d="M99.8831 103.339C99.8831 122.798 89.3581 138.543 76.372 138.543C63.3859 138.543 52.8608 122.798 52.8608 103.339C52.8608 83.8941 63.3859 68.1338 76.372 68.1338C89.3581 68.1338 99.8831 83.8941 99.8831 103.339Z" fill="white"/>
<path d="M76.3754 121.782C84.7759 121.782 91.5859 113.523 91.5859 103.335C91.5859 93.1467 84.7759 84.8877 76.3754 84.8877C67.9748 84.8877 61.1648 93.1467 61.1648 103.335C61.1648 113.523 67.9748 121.782 76.3754 121.782Z" fill="#25333A"/>
<path d="M105.945 88.3764C99.1374 64.1589 68.1885 51.3585 45.1142 51.1C38.3827 51.0272 36.8463 61.5449 43.6834 61.6178C63.1025 61.8326 90.1924 69.7618 96.0356 90.5352C97.8923 97.1211 107.78 94.8931 105.945 88.3764Z" fill="#394C54"/>
<path d="M95.9505 142.273C95.9505 132.887 103.938 133.058 114.838 133.058C125.738 133.058 135.411 132.887 135.411 142.273C135.411 151.673 126.579 159.289 115.679 159.289C104.797 159.289 95.9505 151.673 95.9505 142.273Z" fill="#394C54"/>
<path d="M75.4837 103.143C77.9448 103.143 79.9399 98.7027 79.9399 93.2257C79.9399 87.7486 77.9448 83.3086 75.4837 83.3086C73.0227 83.3086 71.0276 87.7486 71.0276 93.2257C71.0276 98.7027 73.0227 103.143 75.4837 103.143Z" fill="white"/>
<path d="M155.041 103.143C157.504 103.143 159.501 98.7027 159.501 93.2257C159.501 87.7486 157.504 83.3086 155.041 83.3086C152.578 83.3086 150.581 87.7486 150.581 93.2257C150.581 98.7027 152.578 103.143 155.041 103.143Z" fill="white"/>
<path d="M119.945 191.346C119.945 193.094 118.023 194.51 115.675 194.51C113.319 194.51 111.408 193.094 111.408 191.346V172.113C111.408 170.365 113.316 168.949 115.675 168.949C118.027 168.949 119.945 170.365 119.945 172.113V191.346Z" fill="#394C54"/>
<path d="M101.125 192.019C120.73 193.705 141.164 193.217 159.448 182.911C167.978 178.101 174.083 168.115 175.601 172.244C178.954 181.389 168.283 194.197 163.336 196.647C143.236 206.578 121.629 206.604 100.553 204.805C99.6663 204.727 98.8026 204.48 98.0084 204.077C95.307 202.646 93.9491 199.275 94.8447 196.232C95.6711 193.421 98.1285 191.761 101.121 192.019" fill="#394C54"/>
<path d="M84.6429 152.228C84.4864 154.973 82.5932 157.103 80.4052 156.986L18.7476 153.502C16.5669 153.375 14.9177 151.045 15.0706 148.285C15.2271 145.54 17.1275 143.411 19.3082 143.527L80.9695 147.011C83.1539 147.142 84.7958 149.472 84.6465 152.228" fill="#5E7D89"/>
<path d="M82.1986 163.775C82.6501 166.378 81.5433 168.727 79.7485 169.04L28.7943 177.879C26.9922 178.192 25.1646 176.343 24.7132 173.751C24.2617 171.162 25.3648 168.807 27.1633 168.494L78.1138 159.654C79.9196 159.341 81.7472 161.191 82.1986 163.775Z" fill="#5E7D89"/>
<path d="M143.076 151.135C143.232 153.877 145.125 156.006 147.313 155.894L208.975 152.406C211.148 152.278 212.805 149.948 212.652 147.189C212.495 144.447 210.595 142.318 208.414 142.431L146.753 145.918C144.565 146.046 142.923 148.376 143.076 151.135Z" fill="#5E7D89"/>
<path d="M145.512 162.681C145.065 165.28 146.157 167.628 147.966 167.945L198.917 176.785C200.715 177.098 202.546 175.248 202.994 172.653C203.446 170.068 202.342 167.712 200.537 167.395L149.586 158.556C147.791 158.243 145.964 160.092 145.512 162.681Z" fill="#5E7D89"/>
</svg>
