<svg width="366" height="366" viewBox="0 0 366 366" fill="none" xmlns="http://www.w3.org/2000/svg">
<circle cx="183" cy="183" r="183" fill="#61C6E4"/>
<path d="M65.74 103.214C53.7447 117.576 100.606 193.009 100.606 193.009L156.267 128.638C156.267 128.638 77.069 89.6491 65.74 103.214Z" fill="#C4C4C4"/>
<path d="M65.74 103.214C53.7447 117.576 100.606 193.009 100.606 193.009L156.267 128.638C156.267 128.638 77.069 89.6491 65.74 103.214Z" fill="#DC8EB9"/>
<path fill-rule="evenodd" clip-rule="evenodd" d="M82.7675 161.541C71.0159 139.035 58.9511 111.343 65.7403 103.214C71.8276 95.9252 97.5097 103.809 119.972 112.666C100.523 108.711 81.4064 106.902 76.0262 113.344C70.0223 120.533 75.3502 141.34 82.7675 161.541Z" fill="#C4C4C4"/>
<path fill-rule="evenodd" clip-rule="evenodd" d="M82.7675 161.541C71.0159 139.035 58.9511 111.343 65.7403 103.214C71.8276 95.9252 97.5097 103.809 119.972 112.666C100.523 108.711 81.4064 106.902 76.0262 113.344C70.0223 120.533 75.3502 141.34 82.7675 161.541Z" fill="#F9D34B"/>
<path d="M301.073 104.983C312.537 119.773 262.961 193.45 262.961 193.45L209.68 127.094C209.68 127.094 290.245 91.0151 301.073 104.983Z" fill="#C4C4C4"/>
<path d="M301.073 104.983C312.537 119.773 262.961 193.45 262.961 193.45L209.68 127.094C209.68 127.094 290.245 91.0151 301.073 104.983Z" fill="#DC8EB9"/>
<path fill-rule="evenodd" clip-rule="evenodd" d="M281.935 162.649C294.498 140.586 307.562 113.354 301.073 104.983C295.255 97.4779 269.303 104.422 246.533 112.454C266.113 109.211 285.284 108.099 290.426 114.732C296.164 122.134 290.083 142.732 281.935 162.649Z" fill="#C4C4C4"/>
<path fill-rule="evenodd" clip-rule="evenodd" d="M281.935 162.649C294.498 140.586 307.562 113.354 301.073 104.983C295.255 97.4779 269.303 104.422 246.533 112.454C266.113 109.211 285.284 108.099 290.426 114.732C296.164 122.134 290.083 142.732 281.935 162.649Z" fill="#F9D34B"/>
<path d="M77.1981 249.086C77.0936 248.823 76.8924 248.611 76.6376 248.497C58.6071 240.388 43.664 223.14 41.0529 215.626C40.8334 214.994 41.3267 214.394 41.9836 214.394C52.9431 214.388 55.5696 214.241 64.2737 210.151C64.9529 209.832 65.0966 208.909 64.5468 208.392L56.0689 200.419C55.3371 199.731 55.8657 198.397 56.8586 198.326C60.8581 198.041 65.8028 196.818 71.1739 195.018C71.5393 194.896 71.8087 194.576 71.8798 194.191C80.2383 148.853 119.25 114.552 166.113 114.552H193.509C239.362 114.552 277.697 147.389 287.159 191.273C287.234 191.623 287.476 191.916 287.803 192.048C296.2 195.419 304.209 197.904 310.14 198.326C311.133 198.397 311.661 199.731 310.929 200.419L302.451 208.392C301.901 208.909 302.045 209.832 302.724 210.151C311.428 214.241 314.055 214.388 325.015 214.394C325.671 214.394 326.167 214.988 325.947 215.62C322.943 224.283 303.518 245.911 281.872 251.517C281.554 251.599 281.289 251.826 281.155 252.132C266.224 286.36 232.598 310.224 193.509 310.224H166.113C125.875 310.224 91.4252 284.936 77.1981 249.086Z" fill="#F9D44B"/>
<path fill-rule="evenodd" clip-rule="evenodd" d="M259.389 285.461C242.139 300.879 219.538 310.224 194.797 310.224H166.787C141.869 310.224 119.121 300.744 101.825 285.129C111.566 262.181 147.218 246.418 181.248 246.418C215.443 246.418 250.169 262.333 259.389 285.461Z" fill="#FFF6D1"/>
<ellipse rx="13.6119" ry="17.0149" transform="matrix(-1 0 0 1 143.94 199.627)" fill="#525B9F"/>
<ellipse rx="13.6119" ry="17.0149" transform="matrix(-1 0 0 1 224.336 199.627)" fill="#545B9E"/>
<rect x="181.372" y="259.179" width="2.12687" height="24.1791" rx="1.06343" fill="#F3DC9A"/>
<path d="M147.342 269.813C163.965 286.828 200.905 286.828 217.528 269.813" stroke="#F3DC9A" stroke-width="4" stroke-linecap="round"/>
<ellipse cx="183.499" cy="246.418" rx="25.5224" ry="17.0149" fill="#DC8DB9"/>
<ellipse cx="178.044" cy="236.118" rx="15.9515" ry="6.05897" transform="rotate(-10.7701 178.044 236.118)" fill="white" fill-opacity="0.4"/>
<path d="M143.089 274.067C147.237 271.624 149.133 269.812 149.469 263.433" stroke="#F3DC9A" stroke-width="4"/>
<path d="M223.91 274.067C219.762 271.624 217.866 269.812 217.53 263.433" stroke="#F3DC9A" stroke-width="4"/>
<circle cx="82.4734" cy="224.086" r="5.31716" fill="#AF8111"/>
<ellipse rx="5.31716" ry="6.3806" transform="matrix(-1 0 0 1 271.765 229.403)" fill="#AF8111"/>
<ellipse cx="110.122" cy="231.53" rx="5.31716" ry="6.3806" fill="#AF8111"/>
<ellipse rx="6.3806" ry="7.44403" transform="matrix(-1 0 0 1 245.179 230.466)" fill="#AF8111"/>
<ellipse cx="103.742" cy="248.545" rx="5.31716" ry="6.3806" fill="#AF8111"/>
<ellipse rx="5.31716" ry="6.3806" transform="matrix(-1 0 0 1 250.495 248.857)" fill="#AF8111"/>
<ellipse cx="103.071" cy="211.277" rx="4.79521" ry="6.69575" transform="rotate(-15 103.071 211.277)" fill="#AF8111"/>
<ellipse rx="4.79521" ry="6.69575" transform="matrix(-0.965926 -0.258819 -0.258819 0.965926 251.166 211.589)" fill="#AF8111"/>
<path d="M192.008 65.6343C192.008 64.2378 191.733 62.855 191.198 61.5647C190.664 60.2745 189.881 59.1022 188.893 58.1147C187.906 57.1272 186.733 56.3439 185.443 55.8095C184.153 55.2751 182.77 55 181.374 55C179.977 55 178.594 55.2751 177.304 55.8095C176.014 56.3439 174.841 57.1272 173.854 58.1147C172.866 59.1022 172.083 60.2745 171.549 61.5647C171.014 62.855 170.739 64.2378 170.739 65.6343L181.374 65.6343H192.008Z" fill="#423870"/>
<path d="M118.901 186.837C92.6109 214.523 89.1055 181.563 89.1055 181.563V146.846C89.1437 146.659 89.182 146.473 89.2205 146.286C95.5566 115.626 106.832 94.2334 124.159 80.9289C137.308 70.8322 153.943 65.3932 174.548 64.0959C177.807 63.8907 181.166 63.7892 184.626 63.7892C186.819 63.7892 189.011 63.8705 191.198 64.0323C231.84 67.0388 270.507 97.8181 270.507 150.362C270.507 150.362 274.45 223.312 246.846 191.671C219.241 160.03 145.191 159.151 118.901 186.837Z" fill="#544694"/>
<path d="M270.507 150.362C270.507 150.362 274.45 223.312 246.846 191.671C219.241 160.03 145.191 159.151 118.901 186.837C92.6109 214.523 89.1055 181.563 89.1055 181.563V146.846C95.4198 115.886 106.727 94.3143 124.159 80.9289C137.308 70.8322 153.943 65.3932 174.548 64.0959C177.807 63.8907 181.166 63.7892 184.626 63.7892C186.819 63.7892 189.011 63.8705 191.198 64.0323C231.84 67.0388 270.507 97.8181 270.507 150.362ZM270.507 150.362C197.184 121.604 157.081 119.567 87.791 146.846" stroke="#544695"/>
<path fill-rule="evenodd" clip-rule="evenodd" d="M230.862 76.2687C250.722 88.1387 266.113 108.048 270.701 134.96H89.918C96.725 110.407 107.359 92.6843 122.534 81.0316C124.773 79.3127 127.11 77.7259 129.549 76.2687H230.862Z" fill="#00167E"/>
<circle cx="183.501" cy="106.045" r="29.7761" fill="#C8981A"/>
<path d="M179.033 86.903H183.625M188.217 86.903H183.625M183.625 86.903V106.65M183.625 112.425H178.646M183.625 112.425H188.507M183.625 112.425V106.65M183.625 106.65H178.066L173.039 92.7713H169.655M183.625 106.65H188.507L193.534 92.7713H197.305" stroke="#141C6A" stroke-width="3"/>
</svg>
