<svg width="1440" height="142" viewBox="0 0 1440 141" fill="none" xmlns="http://www.w3.org/2000/svg">
<path fill-rule="evenodd" clip-rule="evenodd" d="M0 58.1437C0 57.5914 0.447715 57.1437 1 57.1437H13.2C26.4 57.1437 52.8 57.1437 80.4 57.1437C106.8 57.1437 133.2 57.1437 159.6 53.6577C187.2 50.1717 213.6 43.1997 240 50.1717C266.4 57.1437 292.8 78.0598 320.4 88.5178C346.8 98.9759 373.2 98.9759 399.6 88.5178C427.2 78.0598 453.6 57.1437 480 36.2277C506.4 15.3116 532.8 -5.60444 560.4 1.36758C586.8 8.3396 613.2 43.1997 639.6 50.1717C667.2 57.1437 693.6 36.2277 720 36.2277C746.4 36.2277 772.8 57.1437 800.4 67.6018C826.8 78.0598 853.2 78.0598 879.6 71.0878C907.2 64.1157 933.6 50.1717 960 36.2277C986.4 22.2836 1012.8 8.3396 1040.4 22.2836C1066.8 36.2277 1093.2 78.0598 1119.6 81.5458C1147.2 85.0318 1173.6 50.1717 1200 53.6577C1226.4 57.1437 1252.8 98.9758 1280.4 119.892C1306.8 140.808 1333.2 140.808 1359.6 119.892C1387.2 98.9758 1413.6 57.1437 1426.8 36.2277V36.2277C1430.63 30.165 1440 32.8755 1440 40.0446V139.808C1440 140.36 1439.55 140.808 1439 140.808H1426.8C1413.6 140.808 1387.2 140.808 1359.6 140.808C1333.2 140.808 1306.8 140.808 1280.4 140.808C1252.8 140.808 1226.4 140.808 1200 140.808C1173.6 140.808 1147.2 140.808 1119.6 140.808C1093.2 140.808 1066.8 140.808 1040.4 140.808C1012.8 140.808 986.4 140.808 960 140.808C933.6 140.808 907.2 140.808 879.6 140.808C853.2 140.808 826.8 140.808 800.4 140.808C772.8 140.808 746.4 140.808 720 140.808C693.6 140.808 667.2 140.808 639.6 140.808C613.2 140.808 586.8 140.808 560.4 140.808C532.8 140.808 506.4 140.808 480 140.808C453.6 140.808 427.2 140.808 399.6 140.808C373.2 140.808 346.8 140.808 320.4 140.808C292.8 140.808 266.4 140.808 240 140.808C213.6 140.808 187.2 140.808 159.6 140.808C133.2 140.808 106.8 140.808 80.4 140.808C52.8 140.808 26.4 140.808 13.2 140.808H0.999999C0.447714 140.808 0 140.36 0 139.808V58.1437Z" fill="#6C3EA2"/>
</svg>
